<?xml version='1.0' encoding='utf-8'?>
<svg xmlns="http://www.w3.org/2000/svg" xmlns:dc="http://purl.org/dc/elements/1.1/" xmlns:inkscape="http://www.inkscape.org/namespaces/inkscape" xmlns:ns4="http://creativecommons.org/ns#" xmlns:rdf="http://www.w3.org/1999/02/22-rdf-syntax-ns#" xmlns:sodipodi="http://sodipodi.sourceforge.net/DTD/sodipodi-0.dtd" version="1.1" id="svg2436" xml:space="preserve" width="75.73333" height="83.199997" viewBox="0 0 75.73333 83.199997" sodipodi:docname="kalama.svg" inkscape:version="1.2.2 (732a01da63, 2022-12-09)"><sodipodi:namedview id="namedview14" pagecolor="#ffffff" bordercolor="#000000" borderopacity="0.25" inkscape:showpageshadow="2" inkscape:pageopacity="0.0" inkscape:pagecheckerboard="0" inkscape:deskcolor="#d1d1d1" showgrid="false" inkscape:zoom="22.919408" inkscape:cx="7.395479" inkscape:cy="20.288482" inkscape:window-width="1366" inkscape:window-height="745" inkscape:window-x="-8" inkscape:window-y="-8" inkscape:window-maximized="1" inkscape:current-layer="svg2436" /><title id="title5090">kalama</title><defs id="defs2440" /><g id="g2442" transform="matrix(1.3333333,0,0,-1.3333333,-195.87076,516.23977)"><g id="g2654"><g id="g2656"><path id="path2672" style="fill:#ffffff;fill-opacity:1;stroke:#ffffff;fill-rule:evenodd;stroke:#ffffff" d="m 177.8,355 c 0.5,0 0.9,0.2 1.4,0.1 0.6,0 1.1,0.1 1.7,0.1 0.9,-0.1 1.9,0.2 2.8,-0.1 -0.1,-1.2 -0.7,-2.4 -1.1,-3.5 -0.5,-1.8 -1.3,-3.4 -2.5,-4.7 -1.8,-1.7 -4.4,-2.4 -6.8,-2.2 -0.9,0.2 -1.9,0.4 -2.7,0.9 -1.1,0.6 -2,1.6 -2.6,2.8 -0.4,0.8 -0.9,1.5 -1.1,2.4 -0.4,1.2 -0.9,2.4 -1,3.6 0,0.3 0.3,0.5 0.6,0.4 0.5,-0.1 1.1,-0.1 1.7,-0.1 0.4,-0.1 0.7,0 1.1,0 0.8,-0.2 1.7,0.1 2.6,0 1.1,0.2 2.3,0.2 3.5,0.3 0.8,0.1 1.6,0 2.4,0 z m -12.9,3.5 c 0.3,0 0.6,-0.3 0.9,-0.3 1.2,0 2.4,-0.4 3.6,-0.4 0.6,0.1 1.3,0.1 2,0.1 0.6,0.1 1.3,0 2,0.1 1.5,0.2 3.1,0.1 4.7,0.3 1.1,0 2.3,0.1 3.5,0.1 0.1,0 0.3,0 0.5,0.1 0.6,0 1.1,-0.2 1.6,-0.1 0.6,0 1.1,0.3 1.6,0.2 0.6,0 1.3,0 1.7,-0.4 0.4,-0.4 0.6,-0.9 0.8,-1.4 0.2,-0.4 0.1,-0.8 -0.2,-1.2 -0.7,-0.8 -0.7,-2 -1.1,-3 -0.5,-1.3 -0.9,-2.6 -1.4,-3.9 -0.4,-1.1 -1.1,-2.2 -1.7,-3.2 -1,-1.2 -2.2,-2 -3.6,-2.7 -0.3,-0.1 -0.6,-0.2 -0.9,-0.3 -1,-0.5 -2,-0.6 -3.1,-0.8 -0.4,-0.1 -0.8,0.1 -1.2,0 -0.8,-0.1 -1.6,0.1 -2.4,0.1 -0.5,0.1 -0.9,0.3 -1.4,0.5 -1.2,0.4 -2.3,1.1 -3.3,2 -0.8,0.8 -1.7,1.7 -2.2,2.8 -0.6,0.9 -1.1,1.9 -1.5,2.8 -0.2,0.8 -0.5,1.6 -0.7,2.4 -0.3,1 -0.5,2.1 -0.6,3.1 -0.2,0.8 -0.2,1.7 0.1,2.5 0.2,0.3 0.4,0.6 0.8,0.6 0.5,0 1,0 1.5,0 z m 0.1,10.3 c 0.5,0.1 1.1,0.1 1.6,0 0.3,-0.2 0.4,-0.5 0.7,-0.8 0.8,-0.9 1.2,-2.1 2.1,-3 0.4,-0.4 0.8,-0.7 1.2,-1.1 0.4,-0.3 0.6,-0.9 0.5,-1.4 -0.1,-0.3 -0.5,-0.5 -0.8,-0.5 -0.5,0 -1,-0.1 -1.4,0.1 -0.7,0.3 -1.2,0.8 -1.7,1.3 -0.3,0.3 -0.7,0.5 -0.9,0.9 -0.5,0.7 -0.9,1.5 -1.4,2.2 -0.4,0.6 -0.5,1.3 -0.3,2 0.1,0.2 0.3,0.3 0.4,0.3 z m 10.2,1 c 0.3,0.3 0.8,0.3 1.3,0.4 0.4,0 0.8,-0.2 1,-0.6 0.5,-0.6 1.1,-1.3 0.8,-2.1 -0.2,-1.5 0.2,-3 0.1,-4.4 -0.2,-0.2 -0.5,-0.2 -0.8,-0.2 -0.3,0.1 -0.7,0 -1,0.3 -0.3,0.2 -0.7,0.5 -0.9,0.9 -0.3,0.5 -0.3,1.1 -0.5,1.7 -0.2,0.7 -0.1,1.4 -0.2,2 -0.2,0.7 -0.1,1.4 0.2,2 z m 10.2,0.2 c 0.5,0.4 1.3,0.4 1.8,-0.1 0.4,-0.3 0.9,-0.7 1,-1.3 0.2,-0.8 -0.3,-1.6 -0.7,-2.3 -0.4,-0.9 -1.1,-1.8 -1.4,-2.9 -0.2,-0.6 -0.4,-1.2 -0.7,-1.8 -0.4,-0.1 -0.8,-0.1 -1.2,0 -0.4,0.2 -0.8,0.4 -1.2,0.6 -0.2,0.7 -0.2,1.5 0.1,2.3 0.2,0.5 0.3,1.1 0.5,1.6 0.5,0.9 0.8,1.8 1.2,2.7 0.2,0.4 0.2,0.9 0.6,1.2 z" /></g></g></g><metadata id="metadata3482"><rdf:RDF><ns4:Work rdf:about=""><dc:date>2014-05-25</dc:date><dc:creator><ns4:Agent><dc:title>Sonja Lang</dc:title></ns4:Agent></dc:creator><dc:source>Toki Pona: The Language of Good</dc:source><dc:description>original sitelen pona vector image</dc:description><dc:title>kalama</dc:title><ns4:license rdf:resource="http://creativecommons.org/publicdomain/zero/1.0/" /></ns4:Work><ns4:License rdf:about="http://creativecommons.org/publicdomain/zero/1.0/"><ns4:permits rdf:resource="http://creativecommons.org/ns#Reproduction" /><ns4:permits rdf:resource="http://creativecommons.org/ns#Distribution" /><ns4:permits rdf:resource="http://creativecommons.org/ns#DerivativeWorks" /></ns4:License></rdf:RDF></metadata></svg>