<?xml version='1.0' encoding='utf-8'?>
<svg xmlns="http://www.w3.org/2000/svg" xmlns:dc="http://purl.org/dc/elements/1.1/" xmlns:inkscape="http://www.inkscape.org/namespaces/inkscape" xmlns:ns4="http://creativecommons.org/ns#" xmlns:rdf="http://www.w3.org/1999/02/22-rdf-syntax-ns#" xmlns:sodipodi="http://sodipodi.sourceforge.net/DTD/sodipodi-0.dtd" version="1.1" id="svg7131" xml:space="preserve" width="75.73333" height="83.199997" viewBox="0 0 75.73333 83.199997" sodipodi:docname="tu.svg" inkscape:version="1.2.2 (732a01da63, 2022-12-09)"><sodipodi:namedview id="namedview11" pagecolor="#ffffff" bordercolor="#000000" borderopacity="0.25" inkscape:showpageshadow="2" inkscape:pageopacity="0.0" inkscape:pagecheckerboard="0" inkscape:deskcolor="#d1d1d1" showgrid="false" inkscape:zoom="19.354167" inkscape:cx="-3.4359526" inkscape:cy="24.077502" inkscape:window-width="1366" inkscape:window-height="745" inkscape:window-x="-8" inkscape:window-y="-8" inkscape:window-maximized="1" inkscape:current-layer="svg7131" /><title id="title7542">tu</title><defs id="defs7135" /><g id="g7137" transform="matrix(1.3333333,0,0,-1.3333333,-303.92353,280.56137)"><g id="g7555"><g id="g7557"><path id="path7567" style="fill:#ffffff;fill-opacity:1;stroke:#ffffff;fill-rule:evenodd;stroke:#ffffff" d="m 250.9,193.7 c 0.5,0.1 1,-0.2 1.5,-0.4 0.6,-0.1 1,-0.6 1.2,-1.1 0.2,-0.5 0,-1.1 0,-1.7 0,-2.1 0,-4.2 -0.2,-6.3 -0.1,-2.9 -0.6,-5.9 -0.8,-8.8 -0.2,-2.6 -0.5,-5.2 -0.4,-7.8 0,-0.6 0.1,-1.3 0.2,-1.9 0.1,-0.5 0.6,-0.8 0.8,-1.2 0.1,-0.4 0.1,-0.9 0.1,-1.4 0,-0.4 -0.3,-0.7 -0.6,-1 -0.3,-0.4 -0.8,-0.1 -1.2,0.1 -0.8,0.5 -1.5,1.2 -1.9,2 -0.6,1.1 -0.7,2.4 -0.8,3.6 -0.1,1.6 0.1,3.2 0.2,4.9 0,0.9 0.1,1.8 0.2,2.7 0.1,2.1 0.4,4.2 0.6,6.2 0.2,1.3 0.2,2.6 0.3,3.9 0.1,1.4 0.1,2.7 0.1,4.1 0,0.9 -0.2,1.8 -0.1,2.7 0.2,0.5 0.2,1.2 0.8,1.4 z m 10.2,2.8 c 0.4,0.1 1,0 1.4,-0.2 1,-0.3 1.5,-1.5 1.4,-2.4 -0.2,-1.1 -0.2,-2.3 -0.3,-3.4 -0.1,-1.2 -0.1,-2.4 -0.2,-3.7 0,-0.9 0,-1.8 -0.1,-2.8 0,-1.6 -0.2,-3.2 -0.2,-4.8 -0.1,-1.3 0,-2.6 0,-3.9 -0.1,-1.1 0,-2.1 0.2,-3.2 0,-0.5 0,-1.1 0,-1.7 0.3,-1.6 0.5,-3.3 0.4,-5 0,-0.6 -0.4,-1.2 -0.9,-1.6 -0.6,0.4 -1.1,0.8 -1.6,1.2 -0.6,0.4 -0.6,1.2 -0.7,1.9 0,0.6 -0.3,1.2 -0.3,1.8 0,1.1 -0.3,2.2 -0.4,3.3 -0.1,2.3 -0.1,4.7 -0.1,7 0.2,1.2 0.1,2.5 0.2,3.7 0.1,0.9 0,1.8 0.1,2.8 0.1,0.6 0,1.3 0.1,1.9 0.2,1.6 0.1,3.2 0.1,4.8 0.1,0.8 0,1.7 0.1,2.6 0,0.6 0.3,1.3 0.8,1.7 z" /></g></g></g><metadata id="metadata7772"><rdf:RDF><ns4:Work rdf:about=""><dc:title>tu</dc:title><dc:date>2014-05-25</dc:date><dc:creator><ns4:Agent><dc:title>Sonja Lang</dc:title></ns4:Agent></dc:creator><dc:source>Toki Pona: The Language of Good</dc:source><dc:description>original sitelen pona vector image</dc:description><ns4:license rdf:resource="http://creativecommons.org/publicdomain/zero/1.0/" /></ns4:Work><ns4:License rdf:about="http://creativecommons.org/publicdomain/zero/1.0/"><ns4:permits rdf:resource="http://creativecommons.org/ns#Reproduction" /><ns4:permits rdf:resource="http://creativecommons.org/ns#Distribution" /><ns4:permits rdf:resource="http://creativecommons.org/ns#DerivativeWorks" /></ns4:License></rdf:RDF></metadata></svg>